<?xml version="1.0" encoding="utf-8"?>
<!-- Generator: Adobe Illustrator 18.0.0, SVG Export Plug-In . SVG Version: 6.00 Build 0)  -->
<!DOCTYPE svg PUBLIC "-//W3C//DTD SVG 1.1//EN" "http://www.w3.org/Graphics/SVG/1.1/DTD/svg11.dtd">
<svg version="1.1" id="Layer_1" xmlns="http://www.w3.org/2000/svg" xmlns:xlink="http://www.w3.org/1999/xlink" x="0px" y="0px"
	 viewBox="0 0 173.8 69.2" enable-background="new 0 0 173.8 69.2" xml:space="preserve">
<path fill="#FFFFFF" d="M18.9,4.9l-4.3,3.8c-1.5-2.1-3.1-3.2-4.6-3.2c-0.8,0-1.4,0.2-1.9,0.6C7.6,6.6,7.4,7.1,7.4,7.6
	c0,0.5,0.2,1,0.5,1.5C8.4,9.7,9.8,11,12.2,13c2.2,1.9,3.6,3,4,3.5c1.2,1.2,2,2.3,2.5,3.4c0.5,1.1,0.7,2.3,0.7,3.6
	c0,2.5-0.9,4.6-2.6,6.2c-1.7,1.6-4,2.5-6.8,2.5c-2.2,0-4.1-0.5-5.7-1.6c-1.6-1.1-3-2.7-4.2-5l4.9-3c1.5,2.7,3.2,4.1,5.1,4.1
	c1,0,1.8-0.3,2.5-0.9c0.7-0.6,1-1.3,1-2c0-0.7-0.3-1.4-0.8-2.1c-0.5-0.7-1.7-1.8-3.4-3.2c-3.3-2.7-5.5-4.8-6.5-6.3
	c-1-1.5-1.5-3-1.5-4.4c0-2.1,0.8-4,2.4-5.5C5.7,0.8,7.7,0,10.1,0c1.5,0,3,0.4,4.4,1.1C15.8,1.8,17.3,3.1,18.9,4.9"/>
<path fill="#FFFFFF" d="M53.2,6.2L49.1,10c-2.8-2.9-5.9-4.4-9.4-4.4c-2.9,0-5.4,1-7.4,3c-2,2-3,4.5-3,7.4c0,2,0.4,3.9,1.3,5.4
	c0.9,1.6,2.1,2.8,3.8,3.7c1.6,0.9,3.4,1.4,5.4,1.4c1.7,0,3.2-0.3,4.6-1c1.4-0.6,2.9-1.8,4.6-3.5l4,4.1c-2.3,2.2-4.4,3.7-6.4,4.6
	c-2,0.9-4.3,1.3-6.9,1.3c-4.8,0-8.7-1.5-11.7-4.5c-3-3-4.6-6.9-4.6-11.6c0-3.1,0.7-5.8,2.1-8.1c1.4-2.4,3.4-4.3,5.9-5.7
	C34.1,0.7,36.9,0,39.8,0c2.5,0,5,0.5,7.3,1.6C49.5,2.7,51.5,4.2,53.2,6.2"/>
<polygon fill="#FFFFFF" points="58.3,0.8 64.2,0.8 64.2,12.3 74.4,12.3 74.4,0.8 80.3,0.8 80.3,31.4 74.4,31.4 74.4,18 64.2,18 
	64.2,31.4 58.3,31.4 "/>
<path fill="#FFFFFF" d="M101.8,0c4.3,0,8.1,1.6,11.2,4.7c3.1,3.1,4.7,7,4.7,11.5c0,4.5-1.5,8.3-4.6,11.4c-3.1,3.1-6.8,4.6-11.2,4.6
	c-4.6,0-8.4-1.6-11.5-4.8c-3-3.2-4.6-7-4.6-11.3c0-2.9,0.7-5.6,2.1-8.1c1.4-2.5,3.4-4.4,5.9-5.8C96.3,0.7,98.9,0,101.8,0 M101.7,5.7
	c-2.8,0-5.2,1-7.2,3c-1.9,2-2.9,4.5-2.9,7.5c0,3.4,1.2,6.1,3.7,8c1.9,1.5,4.1,2.3,6.5,2.3c2.8,0,5.1-1,7.1-3c1.9-2,2.9-4.5,2.9-7.4
	c0-2.9-1-5.4-2.9-7.4C106.9,6.7,104.6,5.7,101.7,5.7"/>
<path fill="#FFFFFF" d="M137.7,0c4.3,0,8.1,1.6,11.2,4.7c3.1,3.1,4.7,7,4.7,11.5c0,4.5-1.5,8.3-4.6,11.4c-3.1,3.1-6.8,4.6-11.2,4.6
	c-4.6,0-8.4-1.6-11.5-4.8c-3-3.2-4.6-7-4.6-11.3c0-2.9,0.7-5.6,2.1-8.1c1.4-2.5,3.4-4.4,5.9-5.8C132.1,0.7,134.8,0,137.7,0
	 M137.6,5.7c-2.8,0-5.2,1-7.2,3c-1.9,2-2.9,4.5-2.9,7.5c0,3.4,1.2,6.1,3.7,8c1.9,1.5,4.1,2.3,6.5,2.3c2.8,0,5.1-1,7.1-3
	c1.9-2,2.9-4.5,2.9-7.4c0-2.9-1-5.4-2.9-7.4C142.8,6.7,140.4,5.7,137.6,5.7"/>
<polygon fill="#FFFFFF" points="159,0.8 164.9,0.8 164.9,25.9 173.4,25.9 173.4,31.4 159,31.4 "/>
<path fill="#6AB9D1" d="M0,58.3V42.6h5.6v15.5c0,3.6,2.1,6.1,6.1,6.1c4,0,6.1-2.5,6.1-6.1V42.6h5.7v15.7c0,6.5-3.8,10.9-11.8,10.9
	C3.8,69.2,0,64.7,0,58.3"/>
<polygon fill="#6AB9D1" points="46.8,68.7 34.3,51.7 34.3,68.7 28.7,68.7 28.7,42.6 34.5,42.6 46.6,59 46.6,42.6 52.1,42.6 
	52.1,68.7 "/>
<rect x="57.3" y="42.6" fill="#6AB9D1" width="5.6" height="26.1"/>
<polygon fill="#6AB9D1" points="68,68.7 68,42.6 86.5,42.6 86.5,47.5 73.6,47.5 73.6,53 86.2,53 86.2,57.9 73.6,57.9 73.6,68.7 "/>
<path fill="#6AB9D1" d="M89.1,55.7c0-7.9,5.8-13.5,13.7-13.5c7.9,0,13.6,5.6,13.6,13.5s-5.8,13.5-13.6,13.5
	C94.9,69.2,89.1,63.6,89.1,55.7 M110.7,55.7c0-4.9-3.1-8.6-7.9-8.6c-4.9,0-7.9,3.7-7.9,8.6c0,4.9,3.1,8.6,7.9,8.6
	C107.6,64.3,110.7,60.5,110.7,55.7"/>
<path fill="#6AB9D1" d="M135.1,68.7l-5.1-9.3h-4.1v9.3h-5.6V42.6h12.2c5.4,0,8.8,3.6,8.8,8.4c0,4.6-2.9,7.1-5.8,7.8l5.9,9.9H135.1z
	 M135.6,51c0-2.2-1.7-3.5-3.9-3.5h-5.9v7h5.9C134,54.5,135.6,53.2,135.6,51"/>
<polygon fill="#6AB9D1" points="168.2,68.7 168.2,49.9 160.9,68.7 158.4,68.7 151.1,49.9 151.1,68.7 145.5,68.7 145.5,42.6 
	153.3,42.6 159.7,58.9 166,42.6 173.8,42.6 173.8,68.7 "/>
</svg>
