<?xml version="1.0" encoding="utf-8"?>
<!-- Generator: Adobe Illustrator 18.0.0, SVG Export Plug-In . SVG Version: 6.00 Build 0)  -->
<!DOCTYPE svg PUBLIC "-//W3C//DTD SVG 1.1//EN" "http://www.w3.org/Graphics/SVG/1.1/DTD/svg11.dtd">
<svg version="1.1" id="Layer_1" xmlns="http://www.w3.org/2000/svg" xmlns:xlink="http://www.w3.org/1999/xlink" x="0px" y="0px"
	 viewBox="0 0 250 250.5" enable-background="new 0 0 250 250.5" xml:space="preserve">
<g>
	<defs>
		<rect id="SVGID_1_" y="0" width="250" height="250.5"/>
	</defs>
	<clipPath id="SVGID_2_">
		<use xlink:href="#SVGID_1_"  overflow="visible"/>
	</clipPath>
	<path clip-path="url(#SVGID_2_)" fill="#002F43" d="M241.2,0.5H8.8c-5.1,0-9.3,4.2-9.3,9.3v232.3c0,5.1,4.2,9.3,9.3,9.3h232.3
		c5.1,0,9.3-4.2,9.3-9.3V9.8C250.4,4.7,246.3,0.5,241.2,0.5"/>
	<path clip-path="url(#SVGID_2_)" fill="#002F43" d="M230.8,10.9H19.2c-5.1,0-9.3,4.2-9.3,9.3v211.6c0,5.1,4.2,9.3,9.3,9.3h211.6
		c5.1,0,9.3-4.2,9.3-9.3V20.1C240.1,15,235.9,10.9,230.8,10.9"/>
	<path clip-path="url(#SVGID_2_)" fill="none" stroke="#FFFFFF" stroke-width="2.9703" stroke-miterlimit="10" d="M230.8,10.9H19.2
		c-5.1,0-9.3,4.2-9.3,9.3v211.6c0,5.1,4.2,9.3,9.3,9.3h211.6c5.1,0,9.3-4.2,9.3-9.3V20.1C240.1,15,235.9,10.9,230.8,10.9z"/>
	<path clip-path="url(#SVGID_2_)" fill="#FFFFFF" d="M34.7,177.1l7.6-18.9H46l7.5,18.9l-4,0l-1.1-2.9h-8.6l-1.1,2.9H34.7z
		 M44.2,163.3l-2.9,7.2H47L44.2,163.3z"/>
	<polygon clip-path="url(#SVGID_2_)" fill="#FFFFFF" points="58.7,158.2 58.7,173.6 68.7,173.6 68.7,177.1 54.9,177.1 54.9,158.2 	
		"/>
	<polygon clip-path="url(#SVGID_2_)" fill="#FFFFFF" points="77.6,177.1 77.6,158.2 78.8,158.2 87,167.6 95.2,158.2 96.5,158.2 
		96.5,177.1 92.7,177.1 92.7,166.2 87,172.5 81.4,166.2 81.4,177.1 	"/>
	<path clip-path="url(#SVGID_2_)" fill="#FFFFFF" d="M99.3,177.1l7.6-18.9h3.8l7.5,18.9l-4,0l-1.1-2.9h-8.6l-1.1,2.9H99.3z
		 M108.8,163.3l-2.9,7.2h5.7L108.8,163.3z"/>
	<path clip-path="url(#SVGID_2_)" fill="#FFFFFF" d="M131.2,158.9c1,0.4,1.9,1.1,2.7,1.9l-2.5,2.5c-0.8-1-2-1.5-3.5-1.5
		c-1.5,0-2.5,0.4-2.9,1.1c-0.4,0.7-0.4,1.3,0,1.8c0.4,0.5,1.4,0.9,2.9,1.1c1.6,0.2,3,0.7,4.3,1.6c1.3,0.9,2,2.3,2,4.2
		c0,1.5-0.7,2.8-2.1,3.9c-1.4,1.1-3,1.6-4.9,1.6c-1.8,0-3.2-0.3-4.4-0.8c-1.2-0.5-2.2-1.2-3-2l2.5-2.5c0.8,1,2.3,1.6,4.3,1.8
		c1.7,0,2.7-0.4,3.1-1.1c0.4-0.7,0.4-1.4,0-2.1c-0.4-0.7-1.5-1.2-3.1-1.3c-1.5-0.2-2.9-0.6-4.2-1.4c-1.3-0.8-1.9-2.1-1.9-3.9
		c0-1.7,0.7-3,2.1-4c1.4-1,2.9-1.5,4.4-1.5C128.9,158.2,130.3,158.4,131.2,158.9"/>
	<path clip-path="url(#SVGID_2_)" fill="#FFFFFF" d="M135,177.1l7.6-18.9h3.8l7.6,18.9l-4,0l-1.1-2.9h-8.6l-1.1,2.9H135z
		 M144.6,163.3l-2.9,7.2h5.7L144.6,163.3z"/>
	<path clip-path="url(#SVGID_2_)" fill="#FFFFFF" d="M158.5,174.4c-1.8-1.8-2.7-4.1-2.7-6.7c0-2.7,0.9-4.9,2.7-6.7
		c1.8-1.8,4.1-2.7,6.7-2.7c2.7,0,4.9,0.9,6.7,2.7c1.8,1.8,2.7,4.1,2.7,6.7c0,2.7-0.9,4.9-2.7,6.7c-1.8,1.8-4.1,2.7-6.7,2.7
		C162.6,177.1,160.3,176.2,158.5,174.4 M165.3,173.6c1.7,0,3-0.6,4.1-1.7c1.1-1.1,1.6-2.5,1.6-4.2c0-1.7-0.5-3.1-1.6-4.2
		c-1.1-1.1-2.4-1.7-4.1-1.7c-1.7,0-3,0.6-4.1,1.7c-1,1.1-1.6,2.5-1.6,4.2c0,1.7,0.5,3.1,1.6,4.2
		C162.2,173.1,163.6,173.6,165.3,173.6"/>
	<path clip-path="url(#SVGID_2_)" fill="#FFFFFF" d="M180.3,174.4c-1.8-1.8-2.7-4.1-2.7-6.7c0-2.7,0.9-4.9,2.7-6.7
		c1.8-1.8,4.1-2.7,6.7-2.7c2.7,0,4.9,0.9,6.7,2.7c1.8,1.8,2.7,4.1,2.7,6.7c0,2.7-0.9,4.9-2.7,6.7c-1.8,1.8-4.1,2.7-6.7,2.7
		C184.4,177.1,182.1,176.2,180.3,174.4 M187.1,173.6c1.7,0,3-0.6,4.1-1.7c1.1-1.1,1.6-2.5,1.6-4.2c0-1.7-0.5-3.1-1.6-4.2
		c-1.1-1.1-2.4-1.7-4.1-1.7c-1.7,0-3,0.6-4.1,1.7c-1.1,1.1-1.6,2.5-1.6,4.2c0,1.7,0.5,3.1,1.6,4.2
		C184,173.1,185.4,173.6,187.1,173.6"/>
	<path clip-path="url(#SVGID_2_)" fill="#FFFFFF" d="M199.3,177.1v-18.9h7.3c5.9,0,8.8,3.2,8.8,9.5c0,6.3-2.9,9.5-8.8,9.5H199.3z
		 M206.6,173.4c3.4,0,5-1.9,5-5.7c0-3.8-1.7-5.7-5-5.7h-3.5v11.4H206.6z"/>
	<path clip-path="url(#SVGID_2_)" fill="#FFFFFF" d="M127.5,49.2c3.6,2.4,10.6,26.5-3,39.9c-14.4,14.2-17.3,19.9-15.2,28.6
		c-1.3-2-13.6-14.1,8.7-34.9C131.9,69.7,128.3,54.1,127.5,49.2"/>
	<path clip-path="url(#SVGID_2_)" fill="#FFFFFF" d="M137.7,73.2c4.1,6.9,6.9,23.4-6.8,35.7c-15.8,14.2-13.3,19.4-12.9,24
		c-1.4-1.4-11-15.7,8.2-32.4C139.9,88.8,138.6,78.1,137.7,73.2"/>
	<path clip-path="url(#SVGID_2_)" fill="#FFFFFF" d="M145.2,99.5c3.4,5.9,5.7,18.2-6.9,28c-14.8,11.4-11.3,15.5-10.7,19.3
		c-1.8-0.8-14.2-9.5,5.8-27.7C144,109.6,144.4,104.2,145.2,99.5"/>
	<polygon clip-path="url(#SVGID_2_)" fill="#FFFFFF" points="84.9,196.8 84.9,190.3 82.6,190.3 82.6,188.8 88.9,188.8 88.9,190.3 
		86.6,190.3 86.6,196.8 	"/>
	<path clip-path="url(#SVGID_2_)" fill="#FFFFFF" d="M98.5,196.8l-0.5-1.3h-3.4l-0.5,1.3h-1.9l3.1-7.9h2.1l3.1,7.9H98.5z
		 M96.3,190.5l-1.2,3.4h2.5L96.3,190.5z"/>
	<rect x="104.2" y="188.8" clip-path="url(#SVGID_2_)" fill="#FFFFFF" width="1.7" height="7.9"/>
	<polygon clip-path="url(#SVGID_2_)" fill="#FFFFFF" points="110.4,196.8 110.4,188.8 112.1,188.8 112.1,195.3 115.4,195.3 
		115.4,196.8 	"/>
	<path clip-path="url(#SVGID_2_)" fill="#FFFFFF" d="M119.2,192.8c0-2.4,1.7-4.1,4.1-4.1c2.4,0,4.1,1.7,4.1,4.1
		c0,2.4-1.7,4.1-4.1,4.1C121,196.9,119.2,195.2,119.2,192.8 M125.8,192.8c0-1.5-0.9-2.6-2.4-2.6c-1.5,0-2.4,1.1-2.4,2.6
		c0,1.5,0.9,2.6,2.4,2.6C124.8,195.4,125.8,194.3,125.8,192.8"/>
	<path clip-path="url(#SVGID_2_)" fill="#FFFFFF" d="M136.2,196.8l-1.6-2.8h-1.2v2.8h-1.7v-7.9h3.7c1.6,0,2.7,1.1,2.7,2.6
		c0,1.4-0.9,2.1-1.7,2.3l1.8,3H136.2z M136.4,191.4c0-0.7-0.5-1.1-1.2-1.1h-1.8v2.1h1.8C135.8,192.5,136.4,192.1,136.4,191.4"/>
	<rect x="142.4" y="188.8" clip-path="url(#SVGID_2_)" fill="#FFFFFF" width="1.7" height="7.9"/>
	<polygon clip-path="url(#SVGID_2_)" fill="#FFFFFF" points="154.1,196.8 150.4,191.6 150.4,196.8 148.7,196.8 148.7,188.8 
		150.4,188.8 154.1,193.8 154.1,188.8 155.8,188.8 155.8,196.8 	"/>
	<path clip-path="url(#SVGID_2_)" fill="#FFFFFF" d="M160,192.8c0-2.5,1.9-4.1,4.2-4.1c1.6,0,2.7,0.8,3.3,1.8l-1.4,0.8
		c-0.4-0.6-1-1-1.9-1c-1.4,0-2.5,1.1-2.5,2.6c0,1.5,1,2.6,2.5,2.6c0.7,0,1.4-0.3,1.7-0.6v-0.9h-2.1v-1.5h3.8v3
		c-0.8,0.9-1.9,1.5-3.4,1.5C161.9,196.9,160,195.3,160,192.8"/>
</g>
</svg>
